# xmcd
#
# Track frame offsets:
#	150
#	16456
#	30378
#	41296
#	53399
#	67209
#	78335
#	92011
#	104941
#	114845
#	127654
#	140443
#	152537
#	164761
#	171597
#	184969
#	203928
#	227715
#
# Disc length: 3177 seconds
#
# Revision: 2
# Processed by: cddbd v1.5PL3 Copyright (c) Steve Scherf et al.
# Submitted via: audiograbber 1.82.01
#
DISCID=ef0c6712
DTITLE=Various Artist - Hall Of Fame Volume 1
DYEAR=1999
DGENRE=
TTITLE0=Merle Haggard - Today I Started Loving You Again
TTITLE1=Bobby Bare - Miller's Cave
TTITLE2=Hank Thompson - Squaws Along The Yukon
TTITLE3=Floyd Tillman - Each Night At Nine
TTITLE4=The Carter Family - Bonnie Blue Eyes
TTITLE5=Gene Autry - You Are My Sunshine
TTITLE6=The Shelton Brothers - Just Because
TTITLE7=Roy Acuff - Night Train To Memphis
TTITLE8=The Louvin Brothers - You're Running Wild (Live Broadcast)
TTITLE9=Ernest Tubb -You Nearly Lost Your Mind
TTITLE10=Faron Young - I Fall To Pieces
TTITLE11=Jimmie Rodgers - Nobody Knows But Me
TTITLE12=Jack Guthrie - Chained To A Memory
TTITLE13=Don Williams - Lord, I Hope This Day Is Good (Live)
TTITLE14=Hank Snow - Linda Lou
TTITLE15=Bill Monroe - Nobody Loves Me
TTITLE16=Willie Nelson - 'Til I Gain Control Again (Live)
TTITLE17=Buck Owens - Right After The Dance
EXTD=Castle Music Ltd., UK\nPLS CD 335
EXTT0=
EXTT1=
EXTT2=
EXTT3=
EXTT4=
EXTT5=
EXTT6=
EXTT7=
EXTT8=
EXTT9=
EXTT10=
EXTT11=
EXTT12=
EXTT13=
EXTT14=
EXTT15=
EXTT16=
EXTT17=
PLAYORDER=
